# xmcd CD database file
#
# Track frame offsets:
#	150
#	50642
#	106415
#	144042
#	188122
#	229467
#	268722
#
# Disc length: 4344 seconds
#
# Revision: 0
# Processed by: cddbd v1.5.2PL0 Copyright (c) Steve Scherf et al.
# Submitted via: CDex 1.51
#
DISCID=6010f607
DTITLE=George Robert - Voyage
DYEAR=1995
DGENRE=Jazz
TTITLE0=Jeanine
TTITLE1=Dolphin Dance
TTITLE2=Remebering Henri
TTITLE3=Voyage
TTITLE4=The Village
TTITLE5=Upper Manhattan Medical Group
TTITLE6=Sandu
EXTD=YEAR: 1995
EXTT0=
EXTT1=
EXTT2=
EXTT3=
EXTT4=
EXTT5=
EXTT6=
PLAYORDER=
